<!DOCTYPE HTML PUBLIC "-//W3C//DTD HTML 4.01 Transitional//EN">
<HTML>
 <HEAD>
   <TITLE> [Linux-uvc-devel] MPEG4 live stream howto?
   </TITLE>
   <LINK REL="Index" HREF="http://lists.berlios.de/pipermail/linux-uvc-devel/2007-September/index.html" >
   <LINK REL="made" HREF="mailto:linux-uvc-devel%40lists.berlios.de?Subject=Re%3A%20%5BLinux-uvc-devel%5D%20MPEG4%20live%20stream%20howto%3F&In-Reply-To=%3C200709262259.34327.laurent.pinchart%40skynet.be%3E">
   <META NAME="robots" CONTENT="index,nofollow">
   <style type="text/css">
       pre {
           white-space: pre-wrap;       /* css-2.1, curent FF, Opera, Safari */
           }
   </style>
   <META http-equiv="Content-Type" content="text/html; charset=us-ascii">
   <LINK REL="Previous"  HREF="002164.html">
   <LINK REL="Next"  HREF="002165.html">
 </HEAD>
 <BODY BGCOLOR="#ffffff">
   <H1>[Linux-uvc-devel] MPEG4 live stream howto?</H1>
    <B>Laurent Pinchart</B> 
    <A HREF="mailto:linux-uvc-devel%40lists.berlios.de?Subject=Re%3A%20%5BLinux-uvc-devel%5D%20MPEG4%20live%20stream%20howto%3F&In-Reply-To=%3C200709262259.34327.laurent.pinchart%40skynet.be%3E"
       TITLE="[Linux-uvc-devel] MPEG4 live stream howto?">laurent.pinchart at skynet.be
       </A><BR>
    <I>Wed Sep 26 22:59:34 CEST 2007</I>
    <P><UL>
        <LI>Previous message: <A HREF="002164.html">[Linux-uvc-devel] MPEG4 live stream howto?
</A></li>
        <LI>Next message: <A HREF="002165.html">[Linux-uvc-devel] [Fwd: [Wengophone-devel] Announcing	WengoPhone 2.2 alpha 2]
</A></li>
         <LI> <B>Messages sorted by:</B> 
              <a href="date.html#2174">[ date ]</a>
              <a href="thread.html#2174">[ thread ]</a>
              <a href="subject.html#2174">[ subject ]</a>
              <a href="author.html#2174">[ author ]</a>
         </LI>
       </UL>
    <HR>  
<!--beginarticle-->
<PRE>On Wednesday 26 September 2007, J&#246;rg Hermsdorf wrote:
&gt;<i> Today I tried to use ffmpeg to capture and live transcode the stream. It
</I>&gt;<i> seems like ffmpeg is supposed to capture from v4l2 devices, here is the
</I>&gt;<i> result of my attempts so far.
</I>&gt;<i>
</I>&gt;<i> I tried to capture at different sizes and to different output formats,
</I>&gt;<i> capturing starts always fine but after some time (varies, sometimes after
</I>&gt;<i> just 2 seconds, sometimes after 2 minutes) I always get the same error:
</I>&gt;<i>
</I>&gt;<i> # ffmpeg -v 100 -f video4linux2 -s 320x240 -i /dev/video0 -f audio_device
</I>&gt;<i> -i /dev/dsp2 -f m4v test.m4v FFmpeg version SVN-r9778, Copyright (c)
</I>&gt;<i> 2000-2007 Fabrice Bellard, et al. configuration: --prefix=/usr
</I>&gt;<i> --mandir=/usr/share/man --libdir=/usr/lib64 --shlibdir=/usr/lib64
</I>&gt;<i> --enable-pthreads --enable-libogg --enable-libvorbis --enable-libmp3lame
</I>&gt;<i> --enable-libfaad --enable-libfaadbin --enable-libfaac --enable-libxvid
</I>&gt;<i> --enable-libx264 --enable-liba52 --enable-liba52bin --enable-pp
</I>&gt;<i> --enable-shared --enable-dc1394 --enable-libtheora --enable-gpl libavutil
</I>&gt;<i> version: 49.4.1
</I>&gt;<i>   libavcodec version: 51.40.4
</I>&gt;<i>   libavformat version: 51.12.1
</I>&gt;<i>   built on Jul 29 2007 17:41:31, gcc: 4.2.1 20070705 (prerelease) (SUSE
</I>&gt;<i> Linux) [video4linux2 @ 0x2b8bb4a4f220][3]Capabilities: 4000001
</I>&gt;<i> [video4linux2 @ 0x2b8bb4a4f220]The V4L2 driver set input_id: 0, input:
</I>&gt;<i> Camera 1 Input #0, video4linux2, from '/dev/video0':
</I>&gt;<i>   Duration: N/A, bitrate: 30720 kb/s
</I>&gt;<i>   Stream #0.0, 1/1000000: Video: rawvideo, yuyv422, 320x240, 1/25, 30720
</I>&gt;<i> kb/s, 25.00 fps(r) File 'Downloads/uvc/test.m4v' already exists. Overwrite
</I>&gt;<i> ? [y/N] y
</I>&gt;<i> Output #0, m4v, to 'Downloads/uvc/test.m4v':
</I>&gt;<i>   Stream #0.0, 1/90000: Video: mpeg4, yuv420p, 320x240, 1/25, q=2-31, 200
</I>&gt;<i> kb/s, 25.00 fps(c) Stream mapping:
</I>&gt;<i>   Stream #0.0 -&gt; #0.0
</I>&gt;<i> Press [q] to stop encoding
</I>&gt;<i> ....
</I>&gt;<i> [video4linux2 @ 0x2b91704f3220]The v4l2 frame is 25600 bytes, but 153600
</I>&gt;<i> bytes are expected ....
</I>&gt;<i> [video4linux2 @ 0x2b8bb4a4f220]The v4l2 frame is 32000 bytes, but 153600
</I>&gt;<i> bytes are expected
</I>&gt;<i>
</I>&gt;<i> It's always the same error, ffmpeg aborts because at some point it receives
</I>&gt;<i> a v4l2 frame that has a smaller size than expected. The actual frame size
</I>&gt;<i> of the erroneous frame is always different (I posted two examples above) .
</I>&gt;<i> So it seems to me, that's a problem with uvcvideo, which at some point just
</I>&gt;<i> delivers a corrupt/incomplete frame. ffmpeg can't handle that and aborts.
</I>&gt;<i> But the file that has been captured so far (until ffmpeg aborts) looks good
</I>&gt;<i> and can be played with vlc, so I have hope that this issue can be fixed and
</I>&gt;<i> that piping ffmpeg's output to vlc should be possible to stream my cam
</I>&gt;<i> mpeg4 encoded via http.
</I>
The USB isochronous transfers are not error free. Packets can be lost, which 
result in incomplete/erroneous frames. The only way I can think of to detect 
those erroneous/incomplete frames is to look at the frame size. This can be 
done for uncompressed formats, but will obviously be useless for compressed 
format.

The driver currently handles complete and incomplete frames the same way. I 
can add a driver option to make it drop incomplete frames, returning complete 
frames only to the application. Would you be able to test that ?

Best regards,

Laurent Pinchart

</PRE>

<!--endarticle-->
    <HR>
    <P><UL>
        <!--threads-->
	<LI>Previous message: <A HREF="002164.html">[Linux-uvc-devel] MPEG4 live stream howto?
</A></li>
	<LI>Next message: <A HREF="002165.html">[Linux-uvc-devel] [Fwd: [Wengophone-devel] Announcing	WengoPhone 2.2 alpha 2]
</A></li>
         <LI> <B>Messages sorted by:</B> 
              <a href="date.html#2174">[ date ]</a>
              <a href="thread.html#2174">[ thread ]</a>
              <a href="subject.html#2174">[ subject ]</a>
              <a href="author.html#2174">[ author ]</a>
         </LI>
       </UL>

<hr>
<a href="https://lists.berlios.de/mailman/listinfo/linux-uvc-devel">More information about the Linux-uvc-devel
mailing list</a><br>
</body></html>
